<?xml version="1.0" encoding="UTF-8"?>
<svg id="Capa_1" data-name="Capa 1" xmlns="http://www.w3.org/2000/svg" viewBox="0 0 64 64">
  <defs>
    <style>
      .cls-1 {
        fill: #fff;
        stroke-width: 0px;
      }
    </style>
  </defs>
  <path class="cls-1" d="m15.15,39.62c.12.46.2.97.4,1.43,1.17,2.75-.36,5.83-3.25,6.51-2.57.6-5.21-1.3-5.55-3.92-.31-2.42,1.22-4.72,3.64-5.28.7-.16,1.32-.5,1.9-.91.12-.09.22-.21.31-.34,1.39-2.11,2.49-4.37,3.25-6.78.16-.5.06-1.1,0-1.64-.07-.66-.22-1.31-.36-1.96-.54-2.59,1.29-5.19,3.91-5.56,2.46-.34,4.8,1.44,5.17,3.91.12.81.04,1.59-.21,2.36-.24.74-.27,1.49-.12,2.25.03.16.09.32.17.46,1.45,2.67,2.89,5.35,4.36,8.01.19.34.5.62.81.86.56.42,1.18.35,1.61-.21.8-1.07,1.37-2.25,1.39-3.62,0-.38-.11-.77-.18-1.15-.22-1.2.57-2.4,1.76-2.64,1.29-.27,2.54.5,2.8,1.73.22,1.05-.26,2.05-1.2,2.56-.19.1-.36.23-.51.38-1.32,1.39-1.8,3.05-1.57,4.93.01.1.08.21.15.29,2.17,2.68.96,6.63-2.32,7.56-2.64.75-5.44-1.13-5.77-3.85-.09-.76,0-1.48.19-2.22.31-1.25.24-2.47-.39-3.61-1.46-2.65-2.95-5.29-4.43-7.94-.31-.55-1.02-.7-1.49-.28-.21.19-.4.42-.54.66-1.22,2.2-2.44,4.4-3.61,6.63-.2.38-.21.86-.32,1.37Z"/>
  <path class="cls-1" d="m57.29,20.97c-.02,2.36-1.65,4.31-3.99,4.64-.66.09-1.18.38-1.7.73-.13.09-.25.22-.34.35-1.4,2.17-2.5,4.49-3.26,6.95-.29.94-.31,1.89.06,2.86,1.08,2.8-.63,5.84-3.59,6.32-2.69.43-4.77-1.44-5.21-3.68-.23-1.15-.07-2.26.51-3.3.07-.12.1-.27.1-.41,0-.63-.13-1.23-.45-1.8-1.44-2.58-2.86-5.18-4.31-7.76-.2-.36-.53-.68-.87-.94-.54-.42-1.17-.35-1.58.2-.84,1.1-1.41,2.32-1.37,3.74.01.35.13.7.18,1.06.17,1.25-.72,2.33-1.9,2.54-1.24.22-2.38-.55-2.67-1.77-.26-1.07.33-2.17,1.39-2.63.17-.07.34-.19.47-.33,1.5-1.61,1.8-3.65.71-5.89-1.36-2.78.11-6.06,3.11-6.77,2.44-.58,5.01,1.1,5.49,3.58.16.81.17,1.62-.12,2.39-.34.92-.27,1.84-.04,2.75.08.31.21.62.37.91,1.47,2.6,2.95,5.2,4.43,7.79.43.75,1.23.84,1.79.19.15-.17.27-.37.37-.56,1.11-2.06,2.2-4.13,3.33-6.18.34-.62.44-1.26.39-1.93-.04-.52-.14-1.04-.3-1.53-.88-2.69.67-5.47,3.43-6.11,2.44-.57,5.04,1.17,5.46,3.66.05.3.07.61.1.92Z"/>
</svg>