<?xml version="1.0" encoding="UTF-8"?>
<svg id="Capa_1" data-name="Capa 1" xmlns="http://www.w3.org/2000/svg" viewBox="0 0 64 64">
  <defs>
    <style>
      .cls-1 {
        fill: #3758f9;
        stroke-width: 0px;
      }
    </style>
  </defs>
  <path class="cls-1" d="m17.06,38.76c.11.41.18.86.35,1.27,1.04,2.44-.32,5.17-2.88,5.77-2.28.53-4.62-1.16-4.92-3.48-.28-2.14,1.08-4.19,3.23-4.68.62-.14,1.17-.44,1.69-.81.11-.08.2-.19.27-.3,1.23-1.87,2.21-3.88,2.88-6.02.14-.44.06-.97,0-1.46-.07-.59-.2-1.16-.32-1.74-.48-2.3,1.15-4.6,3.47-4.93,2.18-.3,4.26,1.28,4.58,3.46.11.72.04,1.41-.19,2.1-.21.66-.24,1.32-.11,1.99.03.14.08.28.15.41,1.28,2.37,2.56,4.74,3.87,7.1.16.3.44.55.72.76.49.38,1.05.31,1.42-.19.71-.95,1.21-2,1.23-3.21,0-.34-.09-.68-.16-1.02-.2-1.06.51-2.13,1.56-2.34,1.15-.24,2.25.44,2.48,1.53.2.93-.23,1.82-1.07,2.27-.16.09-.32.21-.45.34-1.17,1.23-1.59,2.7-1.39,4.37.01.09.07.18.13.26,1.92,2.37.85,5.88-2.06,6.71-2.34.66-4.82-1-5.11-3.41-.08-.67,0-1.31.17-1.96.28-1.1.21-2.19-.35-3.2-1.3-2.35-2.62-4.69-3.93-7.04-.27-.49-.9-.62-1.32-.25-.19.16-.36.37-.48.59-1.08,1.95-2.16,3.91-3.2,5.88-.18.34-.19.77-.28,1.21Z"/>
  <path class="cls-1" d="m54.42,22.22c-.02,2.09-1.46,3.82-3.53,4.12-.59.08-1.05.33-1.5.64-.12.08-.22.19-.3.31-1.25,1.92-2.21,3.98-2.89,6.16-.26.83-.28,1.68.05,2.54.96,2.49-.55,5.18-3.19,5.6-2.38.38-4.23-1.28-4.62-3.26-.2-1.02-.06-2.01.45-2.93.06-.11.09-.24.09-.36,0-.56-.12-1.09-.4-1.6-1.28-2.29-2.53-4.59-3.82-6.88-.18-.32-.47-.6-.77-.83-.48-.37-1.04-.31-1.4.18-.74.97-1.25,2.05-1.22,3.32,0,.31.12.62.16.94.15,1.11-.64,2.07-1.69,2.25-1.1.19-2.11-.49-2.37-1.57-.23-.95.29-1.93,1.23-2.33.15-.07.3-.17.41-.29,1.33-1.43,1.6-3.24.63-5.22-1.21-2.47.1-5.37,2.76-6,2.16-.51,4.44.98,4.87,3.17.14.72.15,1.44-.1,2.12-.3.82-.24,1.63-.03,2.44.07.28.18.55.33.8,1.3,2.31,2.62,4.61,3.93,6.91.38.67,1.09.75,1.59.17.13-.15.24-.32.33-.5.98-1.83,1.95-3.67,2.96-5.48.3-.55.39-1.12.34-1.71-.04-.46-.13-.92-.27-1.36-.78-2.39.59-4.85,3.04-5.42,2.16-.5,4.46,1.04,4.84,3.24.05.27.06.54.09.81Z"/>
</svg>