<?xml version="1.0" encoding="UTF-8"?>
<svg id="Capa_1" data-name="Capa 1" xmlns="http://www.w3.org/2000/svg" xmlns:xlink="http://www.w3.org/1999/xlink" viewBox="0 0 256 256">
  <defs>
    <style>
      .cls-1 {
        fill: url(#Degradado_sin_nombre_55);
      }

      .cls-1, .cls-2 {
        stroke-width: 0px;
      }

      .cls-2 {
        fill: url(#Degradado_sin_nombre_56);
      }
    </style>
    <linearGradient id="Degradado_sin_nombre_55" data-name="Degradado sin nombre 55" x1="48.21" y1="193.54" x2="129.12" y2="112.63" gradientUnits="userSpaceOnUse">
      <stop offset=".63" stop-color="#2862ab"/>
      <stop offset="1" stop-color="#27b4d4"/>
      <stop offset="1" stop-color="#72c5c4"/>
    </linearGradient>
    <linearGradient id="Degradado_sin_nombre_56" data-name="Degradado sin nombre 56" x1="126.71" y1="143.06" x2="207.64" y2="62.12" gradientUnits="userSpaceOnUse">
      <stop offset="0" stop-color="#2862ab"/>
      <stop offset=".6" stop-color="#27b4d4"/>
      <stop offset="1" stop-color="#72c5c4"/>
    </linearGradient>
  </defs>
  <path class="cls-1" d="m63.92,157c.47,1.74.76,3.69,1.5,5.45,4.45,10.47-1.35,22.18-12.35,24.76-9.76,2.29-19.81-4.96-21.1-14.92-1.19-9.19,4.63-17.96,13.86-20.06,2.67-.61,5.04-1.89,7.24-3.48.46-.33.85-.81,1.17-1.29,5.29-8.04,9.47-16.64,12.37-25.8.6-1.9.24-4.17,0-6.24-.28-2.51-.85-4.99-1.36-7.47-2.04-9.86,4.91-19.75,14.88-21.13,9.36-1.3,18.27,5.47,19.65,14.86.45,3.08.16,6.06-.8,8.99-.92,2.81-1.04,5.67-.47,8.56.12.6.34,1.2.63,1.74,5.5,10.17,10.99,20.35,16.58,30.46.71,1.28,1.91,2.38,3.09,3.28,2.11,1.61,4.5,1.33,6.11-.81,3.06-4.06,5.21-8.56,5.28-13.76.02-1.45-.4-2.91-.67-4.36-.85-4.55,2.18-9.12,6.68-10.05,4.92-1.02,9.66,1.91,10.66,6.58.85,3.99-.97,7.81-4.58,9.73-.7.38-1.38.88-1.93,1.46-5.01,5.28-6.83,11.6-5.96,18.75.05.39.3.79.56,1.1,8.25,10.18,3.63,25.23-8.82,28.76-10.03,2.85-20.68-4.29-21.93-14.63-.35-2.89.03-5.64.73-8.43,1.19-4.74.9-9.41-1.49-13.75-5.57-10.09-11.22-20.13-16.85-30.18-1.18-2.1-3.86-2.65-5.68-1.06-.81.71-1.53,1.59-2.05,2.53-4.63,8.38-9.26,16.75-13.74,25.21-.77,1.45-.8,3.29-1.22,5.2Z"/>
  <path class="cls-2" d="m224.17,86.05c-.07,8.99-6.26,16.4-15.16,17.66-2.51.35-4.49,1.43-6.45,2.76-.5.34-.94.83-1.27,1.34-5.34,8.24-9.5,17.06-12.4,26.43-1.11,3.57-1.19,7.2.23,10.89,4.13,10.66-2.38,22.23-13.66,24.02-10.22,1.62-18.13-5.47-19.81-13.98-.87-4.39-.25-8.6,1.95-12.56.25-.45.4-1.03.39-1.55-.01-2.41-.51-4.69-1.7-6.84-5.48-9.82-10.86-19.7-16.39-29.49-.78-1.38-2.03-2.58-3.29-3.56-2.05-1.58-4.44-1.32-6.02.76-3.19,4.18-5.38,8.81-5.21,14.23.04,1.34.5,2.67.69,4.02.66,4.75-2.73,8.87-7.23,9.65-4.7.82-9.04-2.1-10.16-6.74-.98-4.07,1.25-8.26,5.27-10,.65-.28,1.29-.73,1.77-1.25,5.71-6.13,6.86-13.88,2.69-22.38-5.18-10.58.41-23.03,11.82-25.75,9.27-2.2,19.05,4.19,20.89,13.62.6,3.09.64,6.16-.45,9.1-1.3,3.51-1.03,6.98-.15,10.47.3,1.19.79,2.38,1.4,3.45,5.59,9.9,11.22,19.77,16.85,29.64,1.63,2.86,4.69,3.2,6.83.72.55-.64,1.01-1.39,1.41-2.14,4.22-7.84,8.37-15.72,12.68-23.51,1.3-2.35,1.69-4.79,1.48-7.33-.16-1.96-.55-3.95-1.16-5.82-3.35-10.24,2.54-20.81,13.03-23.24,9.28-2.16,19.15,4.45,20.75,13.91.19,1.15.26,2.32.39,3.48Z"/>
</svg>